Land_normalized_Motion_pl08
version=1
nRows=20
nColumns=43
inDegrees=yes
endheader
time		pelvis_tilt		pelvis_list		pelvis_rotation		pelvis_tx		pelvis_ty		pelvis_tz		hip_flexion_r		hip_adduction_r		hip_rotation_r		knee_angle_r		ankle_angle_r		subtalar_angle_r		mtp_angle_r		hip_flexion_l		hip_adduction_l		hip_rotation_l		knee_angle_l		ankle_angle_l		subtalar_angle_l		mtp_angle_l		lumbar_extension		lumbar_bending		lumbar_rotation		neck_flexion		neck_lateral_bending		neck_rotation		arm_flex_r		arm_add_r		arm_rot_r		elbow_flex_r		pro_sup_r		wrist_flex_r		wrist_dev_r		hand_finger_flex_r		arm_flex_l		arm_add_l		arm_rot_l		elbow_flex_l		pro_sup_l		wrist_flex_l		wrist_dev_l		hand_finger_flex_l		
2.451667		-2.024819		0.509707		90.848398		-0.016505		0.428805		0.474231		94.519157		-10.028330		5.351295		-133.923749		20.299205		10.378392		25.753234		91.876949		-10.746102		3.131844		-133.346267		21.110801		14.114105		32.353733		-52.059928		-6.181497		-1.335353		14.793760		10.042371		-4.083324		75.150924		-28.381724		13.569077		58.919964		116.531133		-8.218515		-16.309886		-40.028383		96.529757		-15.823748		26.162773		53.773322		137.349069		-24.401669		-6.791280		-9.887901		
2.454722		-2.149824		0.683267		91.008173		-0.016612		0.427463		0.473864		94.660573		-10.292524		5.389147		-134.245440		20.088410		9.811105		25.957837		92.048363		-10.775581		3.039171		-133.625656		20.660958		14.311240		32.791897		-52.637036		-6.103350		-1.759496		15.116296		10.095638		-3.830389		77.012950		-27.740727		13.968496		57.967137		116.013545		-7.937279		-16.297607		-40.435462		98.331227		-15.847832		27.147419		53.272713		135.805492		-24.627432		-6.364897		-10.004829		
2.457778		-2.203420		0.584249		91.070620		-0.016728		0.425544		0.473392		95.111526		-10.437419		5.425464		-134.561118		20.034919		9.598840		26.048652		92.576934		-10.892042		3.022901		-133.961723		20.250620		14.440306		33.010101		-52.862267		-6.053755		-1.911174		15.447527		10.173019		-3.941039		78.633713		-27.343526		14.229734		57.264554		115.844423		-7.657700		-16.132285		-40.525913		99.858330		-15.531548		27.512235		52.758151		135.119037		-24.502467		-6.136814		-9.997317		
2.460833		-2.278510		0.667829		91.182326		-0.016661		0.424236		0.472965		95.307219		-10.578262		5.408332		-134.847422		19.880718		9.036376		26.158902		92.832653		-10.988441		2.978123		-134.234225		19.918595		14.512975		33.455020		-53.325369		-5.975445		-2.202230		15.793653		10.117932		-3.807347		80.263308		-26.718535		14.391851		56.485457		115.377905		-7.482522		-16.098392		-40.818776		101.488181		-15.371958		28.136230		52.217993		133.788806		-24.599661		-5.803471		-10.187883		
2.463889		-2.323336		0.609364		91.240513		-0.016647		0.422576		0.472475		95.684596		-10.653368		5.445348		-135.143861		19.781972		8.827974		26.165188		93.291104		-11.113442		2.978208		-134.550147		19.497539		14.628789		33.550345		-53.585220		-5.926466		-2.328981		16.066636		10.160995		-3.931666		81.757600		-26.292625		14.522101		55.871006		115.282080		-7.272945		-15.868136		-40.792558		102.951670		-14.998690		28.347124		51.658021		133.496349		-24.328999		-5.597359		-10.194655		
2.466944		-2.393913		0.745757		91.296660		-0.016490		0.421471		0.472065		95.828659		-10.693845		5.453806		-135.416141		19.526061		8.375027		26.155614		93.486426		-11.222295		2.963959		-134.816694		18.990999		14.724197		33.772494		-54.092289		-5.897643		-2.538210		16.327069		10.194382		-3.967667		83.350745		-25.804145		14.769612		55.151839		115.021923		-7.065946		-15.755606		-40.858364		104.589364		-14.802816		28.940414		51.071151		132.850810		-24.090728		-5.358574		-10.394701		
2.470000		-2.475783		0.959447		91.311024		-0.016303		0.420679		0.471670		95.859342		-10.713384		5.453839		-135.646477		19.320137		7.928814		26.161876		93.516181		-11.377645		2.911139		-135.057453		18.729574		14.739478		34.336444		-54.706146		-5.882736		-2.728827		16.718344		10.107917		-3.855926		84.936684		-25.246094		14.965835		54.389175		114.419067		-7.043739		-15.833997		-41.189328		106.225706		-14.659527		29.753108		50.530885		131.410771		-24.020554		-4.990798		-11.150970		
2.473056		-2.510050		0.878826		91.323455		-0.016241		0.419232		0.471187		96.263382		-10.710533		5.532816		-135.910315		19.082923		7.954878		26.149859		93.934059		-11.475525		2.946513		-135.329200		18.379578		14.827587		34.440638		-54.934002		-5.855260		-2.768139		16.948869		10.099430		-4.000975		86.297204		-24.910158		15.083557		53.889724		114.366430		-6.895623		-15.603526		-41.166964		107.588835		-14.260642		29.945210		49.986980		131.262968		-23.654948		-4.820298		-11.230785		
2.476111		-2.562121		0.897951		91.351302		-0.016057		0.418250		0.470823		96.522815		-10.670495		5.634286		-136.127799		18.771085		7.924692		26.120333		94.184368		-11.590961		2.965169		-135.524401		18.041140		14.901166		34.575664		-55.323731		-5.835195		-2.861841		17.203501		10.073256		-4.094826		87.682352		-24.576162		15.254534		53.424529		114.276477		-6.799672		-15.441412		-41.183800		109.032442		-13.910126		30.233547		49.435433		131.083465		-23.308540		-4.614601		-11.420024		
2.479167		-2.624087		0.957374		91.378280		-0.016028		0.417388		0.470461		96.764445		-10.665995		5.771928		-136.352411		18.394502		7.923813		26.076717		94.366465		-11.680715		2.947590		-135.725839		17.720845		14.980345		34.711116		-55.755803		-5.798843		-2.931418		17.477759		10.036573		-4.205384		89.083553		-24.317215		15.538323		52.962427		114.200416		-6.742552		-15.323579		-41.212184		110.466121		-13.586407		30.620361		48.902111		130.963368		-22.967312		-4.396212		-11.672937		
2.482222		-2.662540		0.894400		91.391594		-0.016093		0.416519		0.470181		97.098690		-10.651101		5.887793		-136.503043		18.158674		7.938344		26.047173		94.645316		-11.731392		2.930628		-135.883097		17.541939		15.037760		34.804513		-56.066252		-5.735022		-2.970780		17.708278		9.974588		-4.277170		90.379074		-24.015856		15.678237		52.627866		114.137014		-6.720232		-15.206555		-41.230859		111.750990		-13.220822		30.763056		48.441728		130.868552		-22.725871		-4.171122		-11.852864		
2.485278		-2.797865		1.141080		91.501419		-0.016133		0.416259		0.469917		97.138374		-10.745014		6.126968		-136.752707		17.740559		7.918245		25.921508		94.524820		-11.772523		2.783334		-136.002872		17.230683		15.043654		35.295396		-56.751474		-5.682101		-3.155886		18.108812		9.878578		-4.386272		91.938991		-23.849485		16.401254		51.976899		113.767251		-7.003863		-15.265196		-41.545831		113.334143		-13.004220		31.592708		47.881045		130.587411		-22.335848		-3.783918		-13.083067		
2.488333		-2.797853		0.894432		91.558547		-0.016120		0.415124		0.469674		97.676391		-10.723883		6.239531		-136.938962		17.495312		8.001700		25.894357		95.018377		-11.829607		2.804718		-136.133747		17.042584		15.106192		35.364904		-56.828549		-5.584344		-3.140695		18.278378		9.788789		-4.496514		93.164307		-23.652289		16.610164		51.627655		113.800897		-6.845525		-15.124733		-41.483733		114.487101		-12.607685		31.687714		47.454742		130.623391		-21.995264		-3.654591		-13.179913		
2.491389		-2.809176		0.689208		91.629418		-0.016148		0.414251		0.469503		98.133934		-10.712328		6.385442		-137.083109		17.210892		8.058636		25.860282		95.433374		-11.878396		2.790883		-136.230826		16.822601		15.161863		35.434864		-56.971277		-5.472280		-3.131829		18.450892		9.688322		-4.636877		94.418134		-23.474333		16.883251		51.268597		113.878398		-6.711926		-15.034496		-41.453357		115.656072		-12.246232		31.859155		47.027305		130.769253		-21.696893		-3.542624		-13.337874		
2.494444		-2.846010		0.554373		91.710656		-0.016252		0.413672		0.469388		98.483175		-10.703953		6.598160		-137.183871		16.862267		8.096352		25.803677		95.729979		-11.900355		2.727450		-136.296389		16.535815		15.157143		35.577381		-57.205769		-5.350838		-3.141956		18.585028		9.568615		-4.829791		95.732811		-23.344122		17.328743		50.858892		114.049905		-6.618282		-15.097060		-41.537857		116.853431		-11.971049		32.185013		46.612150		131.182555		-21.400346		-3.483670		-13.799257		
2.497500		-2.864844		0.298422		91.769498		-0.016178		0.413120		0.469314		98.881931		-10.666970		6.719290		-137.233209		16.748332		8.128395		25.781159		96.094472		-11.967047		2.672459		-136.301667		16.447680		15.147983		35.655666		-57.311480		-5.263236		-3.119554		18.738196		9.450950		-4.914532		96.897152		-23.067901		17.410351		50.479118		114.126755		-6.565628		-15.024739		-41.586723		117.880453		-11.562485		32.181592		46.252546		131.377232		-21.203828		-3.350534		-14.037049		
2.500556		-2.895832		0.028382		91.787525		-0.016112		0.412485		0.469236		99.305782		-10.594099		6.845781		-137.291523		16.590365		8.187212		25.764344		96.466062		-12.017919		2.609416		-136.340756		16.330696		15.123867		35.713778		-57.371746		-5.209159		-3.081557		18.871401		9.322665		-5.046257		98.063532		-22.815235		17.580826		50.065135		114.330928		-6.434743		-14.968765		-41.607743		118.891702		-11.203868		32.266241		45.869286		131.678347		-20.972015		-3.299644		-14.223537		
2.503611		-2.937571		-0.230811		91.777857		-0.016050		0.411992		0.469164		99.686806		-10.498192		6.983709		-137.309900		16.444730		8.251502		25.751283		96.775011		-12.070406		2.529680		-136.358439		16.244248		15.058913		35.775132		-57.435784		-5.176661		-3.037201		18.944838		9.187903		-5.172479		99.176378		-22.555676		17.730496		49.684389		114.646055		-6.321374		-14.943433		-41.654703		119.841245		-10.879322		32.338869		45.528113		132.071883		-20.768470		-3.307151		-14.441338		
2.506667		-2.981246		-0.506013		91.753151		-0.015928		0.411663		0.469099		100.031501		-10.376582		7.106878		-137.297584		16.340878		8.315950		25.744544		97.040489		-12.124429		2.442513		-136.322712		16.221786		14.967669		35.832850		-57.482439		-5.166582		-2.995754		18.967882		9.054397		-5.267406		100.213806		-22.282232		17.815033		49.343660		115.036291		-6.231482		-14.895305		-41.706425		120.721111		-10.562246		32.353887		45.233310		132.477125		-20.588206		-3.346479		-14.638471		
2.509722		-3.031295		-0.785083		91.698086		-0.015802		0.411354		0.469021		100.364919		-10.233734		7.229104		-137.270827		16.261511		8.377196		25.741541		97.274704		-12.181738		2.346204		-136.286449		16.256167		14.844423		35.890554		-57.503108		-5.180340		-2.958096		18.952266		8.916818		-5.338049		101.191085		-21.992789		17.877533		49.031552		115.557168		-6.142650		-14.810945		-41.751761		121.540862		-10.275828		32.342952		44.953207		132.920004		-20.400826		-3.441165		-14.810191		
